<?xml version="1.0" encoding="utf-8"?>
<!-- Generator: Adobe Illustrator 26.5.0, SVG Export Plug-In . SVG Version: 6.00 Build 0)  -->
<svg version="1.1" id="Capa_1" xmlns="http://www.w3.org/2000/svg" xmlns:xlink="http://www.w3.org/1999/xlink" x="0px" y="0px"
	 viewBox="0 0 119.42 76.34" style="enable-background:new 0 0 119.42 76.34;" xml:space="preserve">
<style type="text/css">
	.st0{fill:#031440;}
</style>
<g>
	<path class="st0" d="M6.35,65.19c-0.11-0.47-0.44-1.27-1.45-1.27c-0.53,0-1.18,0.23-1.18,0.9c0,0.81,1.22,1.22,2.02,1.68
		c0.73,0.4,1.32,0.8,1.32,1.86c0,1.22-1.04,1.92-2.62,1.92c-0.8,0-1.45-0.13-1.83-0.26l-0.1-1.58h0.36c0.14,0.5,0.48,1.37,1.68,1.37
		c0.92,0,1.41-0.67,1.41-1.15c0-1.01-1.82-1.51-2.6-2.09c-0.57-0.41-0.74-0.77-0.74-1.35c0-1.32,1.19-1.76,2.36-1.76
		c0.58,0,1.32,0.14,1.64,0.24l0.1,1.49H6.35z"/>
	<path class="st0" d="M14.53,70.15c-0.17,0.04-0.53,0.13-1.04,0.13c-0.82,0-1.07-0.43-1.07-1.04H12.4
		c-0.44,0.64-1.05,1.04-2.02,1.04c-0.98,0-1.71-0.68-1.71-1.61c0-2.06,2.67-2.06,3.75-2.16v-0.54c0-1-0.01-2.05-1.21-2.05
		c-0.88,0-1,0.37-1,0.83c0,0.58-0.43,0.74-0.67,0.74c-0.38,0-0.68-0.26-0.68-0.64c0-0.92,1.38-1.39,2.36-1.39
		c1.95,0,2.3,0.94,2.3,2.26v3.53c0,0.5,0.17,0.67,0.61,0.67c0.13,0,0.26-0.03,0.38-0.06V70.15z M12.43,66.98
		c-0.67,0.01-2.49,0.14-2.49,1.47c0,0.74,0.48,1.24,0.97,1.24c0.92,0,1.52-0.9,1.52-1.86V66.98z"/>
	<path class="st0" d="M15.67,69.9c0.6,0,1.08-0.13,1.08-1.05v-3.88c0-0.85-0.67-0.9-1.08-0.92V63.8l2.19-0.34v1.88h0.03
		c0.2-0.53,0.84-1.88,2.25-1.88c1.51,0,1.65,0.83,1.65,2.15v3.24c0,0.92,0.48,1.05,1.08,1.05v0.24H19.6V69.9
		c0.6,0,1.08-0.13,1.08-1.05v-2.93c0-1.22-0.01-1.78-0.95-1.78c-0.84,0-1.86,1.61-1.86,2.96v1.75c0,0.92,0.48,1.05,1.08,1.05v0.24
		h-3.27V69.9z"/>
	<path class="st0" d="M30.1,70.15c-0.17,0.04-0.53,0.13-1.04,0.13c-0.82,0-1.07-0.43-1.07-1.04h-0.03
		c-0.44,0.64-1.05,1.04-2.02,1.04c-0.98,0-1.71-0.68-1.71-1.61c0-2.06,2.67-2.06,3.75-2.16v-0.54c0-1-0.01-2.05-1.21-2.05
		c-0.88,0-1,0.37-1,0.83c0,0.58-0.43,0.74-0.67,0.74c-0.38,0-0.68-0.26-0.68-0.64c0-0.92,1.38-1.39,2.36-1.39
		c1.95,0,2.3,0.94,2.3,2.26v3.53c0,0.5,0.17,0.67,0.61,0.67c0.13,0,0.26-0.03,0.38-0.06V70.15z M27.99,66.98
		c-0.67,0.01-2.49,0.14-2.49,1.47c0,0.74,0.48,1.24,0.97,1.24c0.92,0,1.52-0.9,1.52-1.86V66.98z"/>
	<path class="st0" d="M35.08,70.23c-0.23,0.03-0.45,0.06-0.68,0.06c-2.15,0-2.26-0.53-2.26-2.12v-4.1h-1.15V63.6
		c1.15,0,1.89-0.58,1.89-2.13h0.37v2.13h1.83v0.47h-1.83v4.49c0,1.08,0.48,1.25,1.27,1.25c0.18,0,0.37-0.04,0.57-0.07V70.23z"/>
	<path class="st0" d="M36.34,66.87c0-2.13,1.15-3.41,2.97-3.41c1.82,0,2.97,1.28,2.97,3.41c0,2.13-1.15,3.41-2.97,3.41
		C37.49,70.28,36.34,69,36.34,66.87z M39.32,69.81c1.42,0,1.71-1.76,1.71-2.94s-0.28-2.94-1.71-2.94c-1.42,0-1.71,1.76-1.71,2.94
		S37.89,69.81,39.32,69.81z"/>
	<path class="st0" d="M43.84,69.9c0.6,0,1.08-0.13,1.08-1.05v-3.88c0-0.85-0.65-0.9-1.08-0.92V63.8l2.19-0.34v1.52h0.03
		c0.27-0.71,0.77-1.52,1.85-1.52c0.31,0,0.71,0.23,0.71,0.65c0,0.41-0.3,0.67-0.68,0.67c-0.43,0-0.61-0.34-0.81-0.34
		c-0.26,0-1.1,0.57-1.1,2.26v2.15c0,0.92,0.48,1.05,1.08,1.05v0.24h-3.27V69.9z"/>
	<path class="st0" d="M49.27,69.9c0.6,0,1.08-0.13,1.08-1.05v-3.88c0-0.85-0.65-0.9-1.08-0.92V63.8l2.19-0.34v5.39
		c0,0.92,0.48,1.05,1.08,1.05v0.24h-3.27V69.9z M50.05,61.34c0-0.46,0.36-0.81,0.81-0.81c0.46,0,0.81,0.36,0.81,0.81
		c0,0.45-0.35,0.81-0.81,0.81C50.41,62.15,50.05,61.79,50.05,61.34z"/>
	<path class="st0" d="M53.88,66.87c0-2.13,1.15-3.41,2.97-3.41c1.82,0,2.97,1.28,2.97,3.41c0,2.13-1.15,3.41-2.97,3.41
		C55.03,70.28,53.88,69,53.88,66.87z M56.85,69.81c1.42,0,1.71-1.76,1.71-2.94s-0.28-2.94-1.71-2.94c-1.42,0-1.71,1.76-1.71,2.94
		S55.43,69.81,56.85,69.81z"/>
	<path class="st0" d="M70.25,69c0.68,0,2.26,0.03,2.26,1.61c0,1.62-1.59,2.53-3.48,2.53c-1.39,0-2.84-0.53-2.84-1.81
		c0-0.88,0.65-1.26,1.11-1.49c-0.24-0.14-0.61-0.41-0.61-1.01c0-0.53,0.45-1.07,0.61-1.24c-0.33-0.27-0.82-0.7-0.82-1.91
		c0-1.83,1.34-2.23,2.69-2.23c0.65,0,1.01,0.11,1.46,0.36c0.23-0.54,0.57-1.52,1.44-1.52c0.4,0,0.68,0.26,0.68,0.68
		c0,0.38-0.24,0.64-0.67,0.64c-0.37,0-0.45-0.2-0.64-0.2c-0.31,0-0.44,0.41-0.51,0.64c0.17,0.18,0.64,0.71,0.64,1.71
		c0,1.44-0.9,2.25-2.6,2.25c-0.57,0-0.98-0.07-1.29-0.21c-0.08,0.11-0.26,0.33-0.26,0.64c0,0.57,0.71,0.57,1.17,0.57H70.25z
		 M69.03,67.54c1.19,0,1.35-0.94,1.35-1.69c0-1.07-0.37-1.92-1.39-1.92c-1.12,0-1.34,0.83-1.34,1.65
		C67.65,66.66,68,67.54,69.03,67.54z M67.79,70.01c-0.28,0.21-0.68,0.46-0.68,1.1c0,0.84,0.75,1.56,1.99,1.56
		c1.29,0,2.49-0.67,2.49-1.69c0-0.73-0.6-0.97-1.31-0.97H67.79z"/>
	<path class="st0" d="M75.19,61.75c0-0.41,0.31-0.73,0.71-0.73c0.4,0,0.72,0.31,0.72,0.73c0,0.4-0.33,0.71-0.72,0.71
		C75.5,62.46,75.19,62.15,75.19,61.75z M77.69,61.75c0-0.41,0.31-0.73,0.71-0.73c0.41,0,0.73,0.31,0.73,0.73
		c0,0.4-0.31,0.71-0.73,0.71C78,62.46,77.69,62.15,77.69,61.75z M78.6,68.58h-0.03c-0.18,0.47-0.61,1.71-2.13,1.71
		c-1.2,0-1.82-0.83-1.82-2.15v-3.17c0-0.85-0.65-0.9-1.08-0.92V63.8l2.19-0.34v4.37c0,1.18,0.4,1.73,1.14,1.73
		c0.92,0,1.73-1.34,1.73-2.63v-1.96c0-0.85-0.65-0.9-1.08-0.92V63.8l2.19-0.34v5.32c0,0.85,0.65,0.9,1.08,0.92v0.24l-2.19,0.34
		V68.58z"/>
	<path class="st0" d="M87.18,70.03c-0.34,0.13-0.82,0.26-1.69,0.26c-2.2,0-3.44-1.21-3.44-3.6c0-2.08,0.84-3.23,2.89-3.23
		c1.28,0,2.43,0.71,2.43,2.36v0.31h-4.14c0,1.19,0.58,3.63,2.96,3.63c0.33,0,0.71-0.04,1-0.18V70.03z M86.1,65.66
		c0-0.75-0.26-1.74-1.35-1.74c-1.08,0-1.52,1.21-1.52,1.74H86.1z"/>
	<path class="st0" d="M88.6,69.9c0.6,0,1.08-0.13,1.08-1.05v-3.88c0-0.85-0.67-0.9-1.08-0.92V63.8l2.19-0.34v1.72h0.03
		c0.18-0.48,0.78-1.72,2.02-1.72c0.98,0,1.65,0.38,1.65,1.73h0.03c0.23-0.64,0.88-1.73,2.02-1.73c1.29,0,1.65,0.4,1.65,1.73v3.66
		c0,0.92,0.5,1.05,1.08,1.05v0.24h-3.27V69.9c0.6,0,1.08-0.13,1.08-1.05v-2.93c0-1.09-0.13-1.78-0.91-1.78
		c-0.77,0-1.68,1.25-1.68,2.96v1.75c0,0.92,0.48,1.05,1.08,1.05v0.24H92.3V69.9c0.6,0,1.08-0.13,1.08-1.05v-2.93
		c0-1.22-0.01-1.78-0.84-1.78c-0.8,0-1.75,1.38-1.75,2.96v1.75c0,0.92,0.48,1.05,1.08,1.05v0.24H88.6V69.9z"/>
	<path class="st0" d="M105.64,70.03c-0.34,0.13-0.83,0.26-1.69,0.26c-2.2,0-3.44-1.21-3.44-3.6c0-2.08,0.84-3.23,2.89-3.23
		c1.28,0,2.43,0.71,2.43,2.36v0.31h-4.14c0,1.19,0.58,3.63,2.96,3.63c0.33,0,0.71-0.04,1-0.18V70.03z M104.56,65.66
		c0-0.75-0.26-1.74-1.35-1.74c-1.08,0-1.52,1.21-1.52,1.74H104.56z"/>
	<path class="st0" d="M110.95,65.19c-0.11-0.47-0.44-1.27-1.45-1.27c-0.53,0-1.18,0.23-1.18,0.9c0,0.81,1.22,1.22,2.02,1.68
		c0.73,0.4,1.32,0.8,1.32,1.86c0,1.22-1.04,1.92-2.62,1.92c-0.8,0-1.45-0.13-1.83-0.26l-0.1-1.58h0.36c0.14,0.5,0.48,1.37,1.68,1.37
		c0.92,0,1.41-0.67,1.41-1.15c0-1.01-1.82-1.51-2.6-2.09c-0.57-0.41-0.74-0.77-0.74-1.35c0-1.32,1.19-1.76,2.36-1.76
		c0.58,0,1.32,0.14,1.63,0.24l0.1,1.49H110.95z"/>
	<line class="st0" x1="2.96" y1="54.81" x2="111.57" y2="54.81"/>
	<rect x="2.96" y="54.04" class="st0" width="108.61" height="1.52"/>
	<g>
		<rect x="37.51" y="3.2" class="st0" width="8.67" height="8.63"/>
		<polygon class="st0" points="37.51,20.54 37.51,29.25 28.84,29.25 28.84,20.54 20.16,20.54 20.16,11.83 28.84,11.83 28.84,3.2 
			2.97,3.2 2.97,46.41 46.18,46.41 46.18,20.54 		"/>
	</g>
	<path class="st0" d="M75.08,13.17c-0.57-3.34-3.09-7.25-9.83-7.25c-4.22,0-7.94,2.71-7.94,6.87c0,5.61,7.5,7.43,12.98,10.65
		c4.98,2.9,8.32,5.48,8.32,11.47c0,8-6.93,11.78-15.56,11.78c-4.29,0-9.26-0.95-10.84-1.2l-0.44-8.88h1.57
		c0.5,3.34,3.47,7.25,10.21,7.25c5.55,0,9.14-3.59,9.14-7.94c0-6.81-10.46-8.88-16.32-13.36c-2.77-2.14-4.1-4.41-4.1-8.44
		c0-7.56,6.24-10.65,14.18-10.65c4.22,0,6.93,0.5,9.77,1.07l0.44,8.63H75.08z"/>
	<path class="st0" d="M111.61,44.86c-2.71,0.94-6.62,1.83-11.91,1.83c-13.04,0-19.72-8.25-19.72-22.68
		c0-13.42,3.91-20.54,18.59-20.54c4.98,0,9.01,0.88,12.1,1.7l0.57,9.96h-1.58c-0.63-3.65-3.21-9.2-11.84-9.2
		c-10.9,0-11.59,9.83-11.59,17.26c0,7.94,1.57,20.67,14.74,20.67c2.58,0,3.84-0.25,5.04-0.5V29.24c0-4.79-2.39-5.17-5.48-5.17v-1.26
		h16.38v1.26c-3.15,0-5.29,0.38-5.29,5.17V44.86z"/>
</g>
</svg>
