<?xml version="1.0" encoding="utf-8"?>
<!-- Generator: Adobe Illustrator 26.5.0, SVG Export Plug-In . SVG Version: 6.00 Build 0)  -->
<svg version="1.1" id="Capa_1" xmlns="http://www.w3.org/2000/svg" xmlns:xlink="http://www.w3.org/1999/xlink" x="0px" y="0px"
	 viewBox="0 0 433.17 46.91" style="enable-background:new 0 0 433.17 46.91;" xml:space="preserve">
<style type="text/css">
	.st0{fill:#1A1F3C;}
</style>
<g>
	<g>
		<rect x="36.17" y="4.98" class="st0" width="7.31" height="7.25"/>
		<polygon class="st0" points="36.17,19.55 36.17,26.87 28.85,26.87 28.85,19.55 21.53,19.55 21.53,12.23 28.85,12.23 28.85,4.98 
			7.03,4.98 7.03,41.29 43.48,41.29 43.48,19.55 		"/>
	</g>
	<path class="st0" d="M73.25,13.64c-0.48-2.83-2.61-6.14-8.32-6.14c-3.57,0-6.72,2.29-6.72,5.82c0,4.75,6.35,6.3,10.99,9.02
		c4.21,2.46,7.04,4.64,7.04,9.71c0,6.78-5.87,9.98-13.18,9.98c-3.63,0-7.84-0.8-9.18-1.01l-0.37-7.52h1.33
		c0.43,2.83,2.93,6.14,8.64,6.14c4.69,0,7.74-3.04,7.74-6.72c0-5.76-8.86-7.52-13.82-11.31c-2.35-1.81-3.47-3.73-3.47-7.15
		c0-6.4,5.28-9.02,12-9.02c3.57,0,5.87,0.43,8.27,0.91l0.37,7.31H73.25z"/>
	<path class="st0" d="M101.84,41.54c-0.64,0.16-1.97,0.48-3.9,0.48c-3.09,0-4-1.6-4-3.89h-0.11c-1.65,2.4-3.95,3.89-7.58,3.89
		c-3.68,0-6.4-2.56-6.4-6.03c0-7.74,10.03-7.74,14.08-8.11v-2.03c0-3.73-0.05-7.68-4.53-7.68c-3.31,0-3.74,1.39-3.74,3.09
		c0,2.19-1.6,2.77-2.51,2.77c-1.44,0-2.56-0.96-2.56-2.4c0-3.47,5.17-5.23,8.86-5.23c7.31,0,8.64,3.52,8.64,8.48v13.23
		c0,1.87,0.64,2.51,2.29,2.51c0.48,0,0.96-0.11,1.44-0.21V41.54z M93.94,29.64c-2.51,0.05-9.34,0.53-9.34,5.5
		c0,2.77,1.81,4.64,3.63,4.64c3.47,0,5.71-3.36,5.71-6.99V29.64z"/>
	<path class="st0" d="M103.01,40.58c2.24,0,4.06-0.48,4.06-3.95V22.07c0-3.2-2.51-3.36-4.06-3.47v-0.91l8.22-1.28v7.04h0.11
		c0.75-1.97,3.15-7.04,8.43-7.04c5.66,0,6.19,3.09,6.19,8.06v12.16c0,3.47,1.81,3.95,4.05,3.95v0.91h-12.27v-0.91
		c2.24,0,4.05-0.48,4.05-3.95V25.64c0-4.59-0.05-6.67-3.57-6.67c-3.15,0-6.99,6.03-6.99,11.1v6.56c0,3.47,1.81,3.95,4.06,3.95v0.91
		h-12.27V40.58z"/>
	<path class="st0" d="M154.02,41.54c-0.64,0.16-1.97,0.48-3.89,0.48c-3.09,0-4-1.6-4-3.89h-0.11c-1.65,2.4-3.95,3.89-7.58,3.89
		c-3.68,0-6.4-2.56-6.4-6.03c0-7.74,10.03-7.74,14.09-8.11v-2.03c0-3.73-0.05-7.68-4.54-7.68c-3.31,0-3.73,1.39-3.73,3.09
		c0,2.19-1.6,2.77-2.51,2.77c-1.44,0-2.56-0.96-2.56-2.4c0-3.47,5.17-5.23,8.86-5.23c7.31,0,8.64,3.52,8.64,8.48v13.23
		c0,1.87,0.64,2.51,2.29,2.51c0.48,0,0.96-0.11,1.44-0.21V41.54z M146.12,29.64c-2.51,0.05-9.34,0.53-9.34,5.5
		c0,2.77,1.81,4.64,3.63,4.64c3.47,0,5.71-3.36,5.71-6.99V29.64z"/>
	<path class="st0" d="M169.59,41.81c-0.86,0.11-1.71,0.21-2.56,0.21c-8.06,0-8.48-1.97-8.48-7.95V18.71h-4.32v-1.76
		c4.32,0,7.1-2.19,7.1-8h1.39v8h6.88v1.76h-6.88v16.86c0,4.06,1.81,4.7,4.75,4.7c0.69,0,1.39-0.16,2.13-0.27V41.81z"/>
	<path class="st0" d="M171.25,29.22c0-8,4.32-12.8,11.15-12.8c6.83,0,11.15,4.8,11.15,12.8c0,8-4.32,12.8-11.15,12.8
		C175.57,42.02,171.25,37.22,171.25,29.22z M182.4,40.26c5.33,0,6.4-6.62,6.4-11.04c0-4.43-1.07-11.04-6.4-11.04
		c-5.34,0-6.4,6.62-6.4,11.04C175.99,33.64,177.06,40.26,182.4,40.26z"/>
	<path class="st0" d="M196.26,40.58c2.24,0,4.05-0.48,4.05-3.95V22.07c0-3.2-2.46-3.36-4.05-3.47v-0.91l8.22-1.28v5.71h0.11
		c1.01-2.67,2.88-5.71,6.94-5.71c1.17,0,2.67,0.85,2.67,2.45c0,1.55-1.12,2.51-2.56,2.51c-1.6,0-2.29-1.28-3.04-1.28
		c-0.96,0-4.11,2.13-4.11,8.48v8.06c0,3.47,1.81,3.95,4.05,3.95v0.91h-12.27V40.58z"/>
	<path class="st0" d="M215.4,40.58c2.24,0,4.05-0.48,4.05-3.95V22.07c0-3.2-2.45-3.36-4.05-3.47v-0.91l8.22-1.28v20.22
		c0,3.47,1.81,3.95,4.05,3.95v0.91H215.4V40.58z M218.34,8.46c0-1.71,1.33-3.04,3.04-3.04c1.71,0,3.04,1.33,3.04,3.04
		c0,1.71-1.33,3.04-3.04,3.04C219.67,11.5,218.34,10.17,218.34,8.46z"/>
	<path class="st0" d="M229.59,29.22c0-8,4.32-12.8,11.15-12.8c6.83,0,11.15,4.8,11.15,12.8c0,8-4.32,12.8-11.15,12.8
		C233.91,42.02,229.59,37.22,229.59,29.22z M240.74,40.26c5.33,0,6.4-6.62,6.4-11.04c0-4.43-1.07-11.04-6.4-11.04
		c-5.34,0-6.4,6.62-6.4,11.04C234.34,33.64,235.4,40.26,240.74,40.26z"/>
	<path class="st0" d="M290.61,40.47c-2.29,0.8-5.6,1.55-10.08,1.55c-11.04,0-16.7-6.99-16.7-19.21c0-11.36,3.31-17.39,15.74-17.39
		c4.21,0,7.63,0.75,10.24,1.44l0.48,8.43h-1.33c-0.53-3.09-2.72-7.79-10.03-7.79c-9.23,0-9.81,8.32-9.81,14.62
		c0,6.72,1.33,17.5,12.48,17.5c2.19,0,3.25-0.21,4.27-0.43V27.24c0-4.05-2.03-4.37-4.64-4.37V21.8h13.87v1.07
		c-2.67,0-4.48,0.32-4.48,4.37V40.47z"/>
	<path class="st0" d="M301.71,10.01c0-1.55,1.17-2.72,2.67-2.72c1.49,0,2.72,1.17,2.72,2.72c0,1.49-1.23,2.67-2.72,2.67
		C302.88,12.68,301.71,11.5,301.71,10.01z M311.1,10.01c0-1.55,1.17-2.72,2.67-2.72c1.55,0,2.72,1.17,2.72,2.72
		c0,1.49-1.17,2.67-2.72,2.67C312.27,12.68,311.1,11.5,311.1,10.01z M314.51,35.62h-0.11c-0.7,1.76-2.29,6.4-8,6.4
		c-4.48,0-6.83-3.09-6.83-8.06v-11.9c0-3.2-2.46-3.36-4.05-3.47v-0.91l8.22-1.28v16.38c0,4.43,1.49,6.51,4.27,6.51
		c3.47,0,6.51-5.01,6.51-9.87v-7.36c0-3.2-2.45-3.36-4.05-3.47v-0.91l8.22-1.28v19.95c0,3.2,2.45,3.36,4.05,3.47v0.91l-8.22,1.28
		V35.62z"/>
	<path class="st0" d="M343.58,41.06c-1.28,0.48-3.09,0.96-6.35,0.96c-8.27,0-12.91-4.54-12.91-13.5c0-7.79,3.15-12.11,10.83-12.11
		c4.8,0,9.12,2.67,9.12,8.86v1.17h-15.53c0,4.48,2.19,13.61,11.1,13.61c1.23,0,2.67-0.16,3.73-0.69V41.06z M339.53,24.68
		c0-2.83-0.96-6.51-5.07-6.51c-4.05,0-5.71,4.53-5.71,6.51H339.53z"/>
	<path class="st0" d="M345.82,40.58c2.24,0,4.05-0.48,4.05-3.95V22.07c0-3.2-2.51-3.36-4.05-3.47v-0.91l8.22-1.28v6.46h0.11
		c0.69-1.81,2.94-6.46,7.58-6.46c3.68,0,6.19,1.44,6.19,6.51h0.11c0.85-2.4,3.31-6.51,7.58-6.51c4.86,0,6.19,1.49,6.19,6.51v13.71
		c0,3.47,1.87,3.95,4.06,3.95v0.91h-12.27v-0.91c2.24,0,4.05-0.48,4.05-3.95V25.64c0-4.11-0.48-6.67-3.41-6.67
		c-2.88,0-6.3,4.7-6.3,11.1v6.56c0,3.47,1.81,3.95,4.06,3.95v0.91h-12.27v-0.91c2.24,0,4.06-0.48,4.06-3.95V25.64
		c0-4.59-0.05-6.67-3.15-6.67c-2.99,0-6.56,5.17-6.56,11.1v6.56c0,3.47,1.81,3.95,4.05,3.95v0.91h-12.27V40.58z"/>
	<path class="st0" d="M405.3,41.06c-1.28,0.48-3.09,0.96-6.35,0.96c-8.27,0-12.91-4.54-12.91-13.5c0-7.79,3.15-12.11,10.83-12.11
		c4.8,0,9.12,2.67,9.12,8.86v1.17h-15.53c0,4.48,2.19,13.61,11.1,13.61c1.23,0,2.67-0.16,3.73-0.69V41.06z M401.25,24.68
		c0-2.83-0.96-6.51-5.07-6.51c-4.06,0-5.71,4.53-5.71,6.51H401.25z"/>
	<path class="st0" d="M422.64,22.92c-0.43-1.76-1.65-4.75-5.44-4.75c-1.97,0-4.43,0.85-4.43,3.36c0,3.04,4.59,4.59,7.58,6.3
		c2.72,1.49,4.96,2.99,4.96,6.99c0,4.59-3.9,7.2-9.82,7.2c-2.99,0-5.44-0.48-6.88-0.96l-0.37-5.92h1.33
		c0.53,1.87,1.81,5.12,6.3,5.12c3.47,0,5.28-2.51,5.28-4.32c0-3.79-6.83-5.66-9.76-7.84c-2.13-1.55-2.78-2.88-2.78-5.07
		c0-4.96,4.48-6.62,8.86-6.62c2.19,0,4.96,0.53,6.13,0.91l0.37,5.6H422.64z"/>
</g>
</svg>
